<svg xmlns="http://www.w3.org/2000/svg" viewBox="0 0 234.39 232.95"><defs><style>.cls-1{fill:#82baff;}.cls-1,.cls-2,.cls-3,.cls-4{stroke:#30302d;stroke-miterlimit:10;stroke-width:3px;}.cls-2{fill:#fff;}.cls-3{fill:#ffc3b8;}.cls-4{fill:none;}</style></defs><g id="Layer_2" data-name="Layer 2"><g id="Layer_1-2" data-name="Layer 1"><path class="cls-1" d="M118.21,40.61c4.66,2.34,9.58,4.73,14.73,4.35,4.82-.37,9.63-3.16,14.26-1.72,7.5,2.33,8.85,13.53,15.42,18,7.6,5.19,20.09,0,25.3,7.86,4.23,6.34-.68,15.18.81,22.77,1.09,5.5,5.37,9.6,7.62,14.68,3.33,7.52-5.69,18-7.17,26.18-1.67,9.21,2,16.56,2.6,25.89.62,9.75-3.06,15.28-8.78,19.56-10.46,7.82-27.24-1.71-36.92,7.17-3.22,2.95-5.06,7.58-8.88,9.57-2.77,1.45-6.4,2.39-9.11.9-20.68-11.37-27.5-2.59-41.24-3.88-6.28-.59-13-1.35-17.85-5.57-4.58-4-6.77-10.32-11.15-14.53S47,165.92,42.62,161.53c-5.66-5.64-.89-18.18-1.83-26.34-1.16-10-8.35-16.24-9.51-26.21-.82-7.12-1.18-15.57,4.08-20.11,4.35-3.76,10.91-3.18,15.57-6.51,6.92-4.94,6.61-15.5,8.58-24.08A36.65,36.65,0,0,1,82,32.76C96.21,27.42,105.36,34.16,118.21,40.61Z"/><path class="cls-1" d="M106.05,45.67l19.89-35.21a1.08,1.08,0,0,1,2,.57l-1.19,40.59"/><circle class="cls-2" cx="126.9" cy="9.39" r="7.89"/><path class="cls-1" d="M46.18,108.69,14.57,83.48a1.08,1.08,0,0,1,.87-1.9l39.89,7.61"/><circle class="cls-2" cx="11.93" cy="81.02" r="7.5"/><path class="cls-1" d="M144.72,177l-.2,40.29a1.07,1.07,0,0,1-2,.49l-18.69-35.89"/><circle class="cls-3" cx="144.22" cy="220.88" r="10.57"/><path class="cls-1" d="M60.81,166.36,24.7,186.69a1.1,1.1,0,0,1-1.47-1.56l22.57-35"/><circle class="cls-3" cx="21.35" cy="188.25" r="10.88"/><path class="cls-1" d="M91,188.31l-15.2,22.51a.72.72,0,0,1-1.32-.48l3-27.12"/><circle class="cls-3" cx="74.32" cy="212.72" r="4.74"/><path class="cls-1" d="M181.68,137.83l34.77,16.52a1,1,0,0,1-.39,2l-38.63,1.6"/><circle class="cls-2" cx="219.43" cy="156.06" r="10.1"/><path class="cls-1" d="M178.92,88.71l39.77-7.32a1.07,1.07,0,0,1,.86,1.9l-31.91,25.12"/><circle class="cls-3" cx="222.28" cy="81.02" r="10.61"/><path class="cls-1" d="M77.43,118.85,81,78.57A1.07,1.07,0,0,1,83,78.25l15.73,37.44"/><circle class="cls-3" cx="81.54" cy="75.01" r="10.61"/><path class="cls-1" d="M132.79,116.15,150.61,86a.93.93,0,0,1,1.73.52l-1.72,35.13"/><circle class="cls-2" cx="152.4" cy="83.44" r="9.19"/><path class="cls-1" d="M128.8,142.81l-26.65,20.85a.9.9,0,0,1-1.38-1.08l13.93-31"/><circle class="cls-2" cx="99.63" cy="165.33" r="8.88"/><path class="cls-1" d="M68.11,52.13,57.52,27a.72.72,0,0,1,1.13-.84L79.8,43.53"/><circle class="cls-3" cx="56.75" cy="24.72" r="6.65"/><path class="cls-4" d="M114.49,85.44l7.12-15.86c.2-.44,1-.44,1.07,0l2.8,15.92"/><path class="cls-4" d="M151.13,148.15l5.53,17.18c.16.48-.45,1-.82.75l-13.21-10.34"/><path class="cls-4" d="M82,145.55l-18,1.87c-.5.05-.91-.66-.56-1l12.84-10.8"/><line class="cls-4" x1="84.84" y1="17.33" x2="79.8" y2="1.45"/><line class="cls-4" x1="41.38" y1="57.17" x2="28.11" y2="47.08"/><line class="cls-4" x1="14.45" y1="109.73" x2="0.05" y2="109.21"/><line class="cls-4" x1="26.36" y1="139.7" x2="12.49" y2="143.54"/><line class="cls-4" x1="51.51" y1="192.02" x2="44.02" y2="201.15"/><line class="cls-4" x1="109.35" y1="205.72" x2="108.12" y2="222.35"/><line class="cls-4" x1="173.21" y1="214.04" x2="165.98" y2="201.98"/><line class="cls-4" x1="200.72" y1="189.96" x2="193.45" y2="183.54"/><line class="cls-4" x1="224.42" y1="126.52" x2="207.84" y2="124.69"/><line class="cls-4" x1="223.43" y1="53.36" x2="208.83" y2="61.41"/><line class="cls-4" x1="188.61" y1="36.16" x2="175.56" y2="49.88"/><line class="cls-4" x1="163.59" y1="12.17" x2="156.84" y2="26.02"/></g></g></svg>